<svg xmlns="http://www.w3.org/2000/svg" fill="none" viewBox="0 0 168 184"><path fill="#fff" d="M140.474 50.468 91.294 21.85c-4.426-2.467-11.311-2.467-15.737 0l-49.18 28.618C22.443 53.428 19 59.349 19 64.283v56.742c0 4.934 3.443 10.855 7.869 13.322l49.18 28.618c4.426 2.467 11.31 2.467 15.737 0l49.18-28.618c4.426-2.467 7.868-8.388 7.868-13.322V64.283c-.491-4.934-3.934-10.855-8.36-13.815Z"/><path fill="#000" d="M153.394 35.628 97.582 3.686c-8.775-4.915-19.305-4.915-28.08 0L14.04 35.628C5.265 40.542 0 50.02 0 59.848v64.236c0 10.179 5.265 19.306 14.04 24.22l55.461 31.942c8.775 4.915 19.306 4.915 28.081 0l55.461-31.942c8.775-4.914 14.04-14.392 14.04-24.22V59.848c.351-9.828-5.265-19.306-13.689-24.22Zm-25.975 26.677c-1.404-1.404-3.511-2.106-6.319-2.106-10.881 0-28.08-4.212-36.505-12.636-.702-.351-1.404-.351-1.755 0-8.425 8.424-25.625 12.636-36.506 12.636-2.808 0-4.914.702-6.318 2.106-1.404 1.755-2.106 4.212-2.457 6.319l98.284 39.664c1.755.702 2.808 2.457 2.808 4.212 0 1.405.702 9.478-4.563 15.445-2.106 2.457-5.967 5.265-12.637 5.265-8.775 0-19.305 2.809-26.326 7.021-2.808 1.755-4.914 3.51-5.967 5.616-1.053 1.755-2.808 2.808-5.265 2.808-2.106 0-4.213-1.053-4.915-2.808-3.51-6.669-19.656-12.637-32.293-12.637-6.67 0-10.53-2.808-12.637-5.265-5.967-6.318-5.616-14.743-5.265-15.796.351-2.106 2.106-3.861 4.212-3.861h.352c2.457.351 4.212 2.457 3.86 4.914 0 1.405 0 5.968 2.458 8.776 1.404 1.404 3.51 2.106 6.318 2.106 10.882 0 28.081 4.212 36.506 12.637.702.351 1.404.351 1.755 0 8.424-8.425 25.624-12.637 36.505-12.637 2.808 0 4.915-.702 6.319-2.106 1.755-1.755 2.106-4.563 2.457-6.318L31.24 75.995l-.35-.351c-.352-.351-.703-.351-1.054-.702 0 0-.35-.351-.35-.702s-.352-.702-.352-.702c0-.351 0-.351-.35-.702 0-.351 0-.351-.352-.702 0-1.053-.702-9.478 4.564-15.445 2.105-2.457 5.967-5.265 12.636-5.265 12.637 0 28.783-5.968 32.293-12.637 1.053-1.755 2.809-2.808 4.915-2.808s4.212 1.053 5.265 2.808c1.053 2.106 3.159 3.861 5.967 5.617 6.669 3.86 17.551 7.02 26.326 7.02 6.67 0 10.531 2.808 12.637 5.265 5.265 5.967 4.914 14.392 4.563 15.445-.351 2.106-2.106 3.86-4.212 3.86h-.351c-2.457-.35-4.212-2.456-3.861-4.913.702-1.404.702-5.968-1.755-8.776Z"/></svg>